<?xml version="1.0" standalone="no"?>
<!DOCTYPE svg PUBLIC "-//W3C//DTD SVG 20010904//EN"
 "http://www.w3.org/TR/2001/REC-SVG-20010904/DTD/svg10.dtd">
<svg version="1.0" xmlns="http://www.w3.org/2000/svg"
 width="225.000000pt" height="225.000000pt" viewBox="0 0 225.000000 225.000000"
 preserveAspectRatio="xMidYMid meet">
<metadata>
Created by potrace 1.14, written by Peter Selinger 2001-2017
</metadata>
<g transform="translate(0.000000,225.000000) scale(0.100000,-0.100000)"
fill="#000000" stroke="none">
<path d="M843 1867 c-160 -106 -291 -195 -290 -200 2 -7 563 -396 577 -400 12
-3 549 396 545 404 -3 4 -105 78 -227 165 -123 87 -243 172 -268 190 l-45 32
-292 -191z"/>
<path d="M1403 1389 l-272 -200 -287 195 c-157 108 -290 196 -295 196 -5 0
-80 -48 -166 -107 l-156 -106 29 -24 c125 -99 866 -644 873 -641 18 6 900 643
901 650 0 7 -320 225 -342 233 -7 2 -135 -86 -285 -196z"/>
<path d="M168 1089 l-167 -112 62 -46 c186 -140 1066 -781 1072 -781 6 0 542
397 972 720 l142 107 -167 106 -166 105 -46 -32 c-254 -184 -703 -508 -722
-520 -25 -16 -29 -13 -414 274 -214 159 -391 290 -394 290 -3 0 -80 -50 -172
-111z"/>
</g>
</svg>
